Donkey Punch (2008)

After meeting at a nightclub in a Mediterranean resort, seven young adults decide to continue partying aboard a luxury yacht in the middle of the ocean. But when one of them dies in a freak accident, the others argue about what to do, which leads to a ruthless fight for survival. 
 
Format                           : AVI
Format/Info                      : Audio Video Interleave
File size                        : 700 MiB
Duration                         : 1h 35mn
Overall bit rate                 : 1 029 Kbps
Writing application              : VirtualDubMod 1.5.4.1 (build 2178/release)
Writing library                  : VirtualDubMod build 2178/release
Language                         : English
Subtitles                        : None
Genre: Thriller

Video
ID                               : 0
Format                           : MPEG-4 Visual
Format profile                   : Advanced Simple@L5
Format settings, BVOP            : Yes
Format settings, QPel            : No
Format settings, GMC             : No warppoints
Format settings, Matrix          : Custom
Codec ID                         : XVID
Codec ID/Hint                    : XviD
Duration                         : 1h 35mn
Bit rate                         : 904 Kbps
Width                            : 640 pixels
Height                           : 352 pixels
Display aspect ratio             : 16:9
Frame rate                       : 25.000 fps
Color space                      : YUV
Chroma subsampling               : 4:2:0
Bit depth                        : 8 bits
Scan type                        : Progressive
Bits/(Pixel*Frame)               : 0.160
Stream size                      : 615 MiB (88%)
Writing library                  : XviD 1.2.1 (UTC 2008-12-04)

Audio
ID                               : 1
Format                           : MPEG Audio
Format version                   : Version 1
Format profile                   : Layer 3
Mode                             : Joint stereo
Mode extension                   : MS Stereo
Codec ID                         : 55
Codec ID/Hint                    : MP3
Duration                         : 1h 35mn
Bit rate mode                    : Variable
Bit rate                         : 112 Kbps
Nominal bit rate                 : 128 Kbps
Channel(s)                       : 2 channels
Sampling rate                    : 48.0 KHz
Stream size                      : 76.1 MiB (11%)
Alignment                        : Aligned on interleaves
Interleave, duration             : 24 ms (0.60 video frame)
Interleave, preload duration     : 164 ms
Writing library                  : LAME3.98r
Encoding settings                : -m j -V 4 -q 2 -lowpass 17 --abr 128
 
http://leetleech.org/images/17497596805281185714.png 
http://leetleech.org/images/97502589341173852876.png 
http://leetleech.org/images/78866053552202004513.png 
http://leetleech.org/images/12152034467110673269.png 
http://leetleech.org/images/87144441597083723323.png 
http://leetleech.org/images/90589398319762669222.png
 
http://www.youtube.com/watch?v=-g9wEGJJkFw&feature=related
 
http://www.imdb.com/title/tt0988849/
 
http://leetleech.org/images/97913465899887526311.png